<?xml version="1.0" encoding="UTF-8"?>
<svg width="2464px" height="225px" viewBox="0 0 2464 225" version="1.1" xmlns="http://www.w3.org/2000/svg" xmlns:xlink="http://www.w3.org/1999/xlink">
    <title>bubble1</title>
    <g id="Page" stroke="none" stroke-width="1" fill="none" fill-rule="evenodd">
        <g id="bubble1" fill="#F7F5EF" stroke="#CED2DA" stroke-width="2">
            <circle id="Oval-4-Copy-69" cx="591" cy="107" r="6"></circle>
            <circle id="Oval-4-Copy-73" cx="7" cy="127" r="6"></circle>
            <circle id="Oval-4-Copy-68" cx="852" cy="91" r="6"></circle>
            <circle id="Oval-4-Copy-86" cx="394" cy="128" r="6"></circle>
            <circle id="Oval-4-Copy-67" cx="770" cy="79" r="5"></circle>
            <circle id="Oval-4-Copy-84" cx="515" cy="67" r="5"></circle>
            <circle id="Oval-4-Copy-66" cx="774" cy="221" r="3"></circle>
            <circle id="Oval-4-Copy-89" cx="327" cy="202" r="6"></circle>
            <circle id="Oval-4-Copy-88" cx="364" cy="189" r="3"></circle>
            <circle id="Oval-4-Copy-65" cx="859" cy="21" r="3"></circle>
            <circle id="Oval-4-Copy-64" cx="943" cy="4" r="3"></circle>
            <circle id="Oval-4-Copy-62" cx="1721" cy="78" r="10"></circle>
            <circle id="Oval-4-Copy-61" cx="1555" cy="96" r="10"></circle>
            <circle id="Oval-4-Copy-60" cx="1505" cy="138" r="6"></circle>
            <circle id="Oval-4-Copy-82" cx="2089" cy="103" r="6"></circle>
            <circle id="Oval-4-Copy-57" cx="976" cy="72" r="10"></circle>
            <circle id="Oval-4-Copy-56" cx="1294" cy="80" r="6"></circle>
            <circle id="Oval-4-Copy-55" cx="1489" cy="184" r="6"></circle>
            <circle id="Oval-4-Copy-53" cx="1784" cy="13" r="3"></circle>
            <circle id="Oval-4-Copy-78" cx="2025" cy="165" r="3"></circle>
            <circle id="Oval-4-Copy-77" cx="2041" cy="181" r="3"></circle>
            <circle id="Oval-4-Copy-49" cx="1195" cy="95" r="3"></circle>
            <circle id="Oval-4-Copy-90" cx="2460" cy="123" r="3"></circle>
            <circle id="Oval-4-Copy-48" cx="874" cy="209" r="10"></circle>
            <circle id="Oval-4-Copy-47" cx="986" cy="178" r="6"></circle>
            <circle id="Oval-4-Copy-45" cx="1067" cy="161" r="3"></circle>
            <circle id="Oval-4-Copy-44" cx="569" cy="153" r="3"></circle>
            <circle id="Oval-4-Copy-76" cx="128" cy="121" r="3"></circle>
            <circle id="Oval-4-Copy-43" cx="908" cy="174" r="3"></circle>
        </g>
    </g>
</svg>