<?xml version="1.0" encoding="UTF-8"?>
<svg width="3002px" height="494px" viewBox="0 0 3002 494" version="1.1" xmlns="http://www.w3.org/2000/svg" xmlns:xlink="http://www.w3.org/1999/xlink">
    <title>Group</title>
    <g id="Page" stroke="none" stroke-width="1" fill="none" fill-rule="evenodd">
        <g id="Group" transform="translate(1, -1)">
            <g id="Group-12-Copy" transform="translate(1426, 1)" fill="#CED2DA">
                <path d="M74.5254082,163.030005 C73.6120984,167.439508 71.8498396,173.515232 70.8384563,175.770615 C70.3174406,176.881429 68.9137632,179.265691 67.7062328,181.060791 C64.6720829,185.439609 64.2797887,186.452229 63.8905594,190.797293 C63.335831,197.232037 62.2263741,199.910879 58.6681437,203.537903 C57.3962526,204.81135 55.9925751,206.345624 55.5359203,206.934785 C54.1322428,208.828079 53.4487929,211.669554 53.2863586,216.539339 C53.1882851,218.954286 52.9584252,222.025903 52.7622781,223.29935 L52.4036968,225.683611 L33.1874138,225.683611 L13.9711309,225.683611 L14.5565073,224.606551 C15.7640376,222.449362 21.2469611,217.420012 25.2587816,214.774924 C27.4133345,213.36953 29.5985355,211.835256 30.1195511,211.408728 C32.1423177,209.711821 34.0026501,206.965471 36.1234902,202.457774 C39.2220009,195.95859 39.9422284,195.338743 47.0219116,192.985167 C56.0262879,190.011745 58.1471281,187.725677 62.7811025,176.194075 C67.0534308,165.51246 69.2723445,162.180017 73.05737,160.774623 C74.0350405,160.384917 74.8839895,160.12409 74.9483503,160.18853 C75.0157758,160.252969 74.8196288,161.526417 74.5254082,163.030005 M293.287619,73.2964657 C295.506533,74.0789453 298.310823,76.3005738 304.182976,81.9528386 C309.273605,86.8502407 320.073953,96.684936 321.836212,98.0565768 L322.587087,98.645738 L321.998646,100.505278 C321.673777,101.517899 321.051623,103.512455 320.662394,104.914781 C320.172026,106.614756 319.096282,108.870139 317.496458,111.61342 C314.591029,116.544576 313.579646,118.799959 312.209681,123.602236 C310.318701,130.070735 309.469752,131.015847 303.597599,132.878456 C298.114676,134.642871 295.993836,136.437971 294.234642,140.752349 C292.634817,144.735324 291.23114,147.414166 287.479827,153.523644 C283.33622,160.252969 282.649705,161.756558 282.094977,165.251634 C281.868182,166.785907 281.411527,168.452129 281.117306,169.007536 C280.498217,170.18279 276.875626,174.78868 274.200058,177.762102 L272.275364,179.919291 L270.448745,178.25307 C269.471074,177.304889 266.369499,174.42966 263.595857,171.784572 C260.822215,169.170169 256.614247,165.21788 254.232899,162.996251 C249.274056,158.390361 247.707944,156.625946 245.357244,153.001991 C243.466264,150.126762 238.801642,141.013176 234.88483,132.55319 L232.307335,126.965364 L233.514865,125.725671 C234.918543,124.320276 236.09236,123.666676 240.235967,122.000454 C245.455318,119.910773 247.349363,118.569818 252.504353,113.310327 C255.112496,110.698993 258.7688,107.203917 260.65978,105.568381 C266.72808,100.342645 268.229831,98.4800364 271.524489,91.8826589 C272.535872,89.8881029 274.527991,86.4912206 275.962316,84.3677857 C279.811703,78.5866419 283.271859,75.3861466 287.608548,73.6217317 C289.827462,72.7073045 291.329213,72.609111 293.287619,73.2964657 M384.379543,0.449144083 C382.096268,1.42801079 377.986374,6.09834034 375.114659,10.9006174 C374.461857,11.9807462 372.601524,15.442068 370.937339,18.5781237 C369.273154,21.7141794 366.045922,27.2989362 363.759582,30.990399 C358.540231,39.4196994 354.396625,47.1953992 351.20004,54.5108169 C349.796363,57.6468726 348.294612,61.0130694 347.773596,62.0256901 C344.935594,67.7423944 343.954858,71.5627362 343.369482,79.6974561 C342.848466,86.2948336 342.324386,88.9736757 341.313002,89.8881029 C340.237258,90.8700382 338.410639,91.3916913 334.267032,91.8826589 C329.599345,92.438066 326.991202,93.4169327 324.90101,95.3777347 L323.696544,96.4885489 L319.844093,93.0916667 C317.692605,91.2290582 313.122991,87.0466278 309.665899,83.7816931 C299.910647,74.6005984 297.854168,72.8699376 295.570893,71.7284378 C293.710561,70.8109421 293.125185,70.6820631 290.808197,70.6820631 C288.359424,70.6820631 287.970195,70.7802566 285.423347,72.0537039 C282.35855,73.5879777 279.649268,75.7451667 277.234207,78.5866419 C275.113367,81.1028509 271.263981,87.1785753 269.143141,91.4254453 C266.240777,97.2403431 264.935173,98.808371 257.757417,105.144922 C256.221953,106.482809 252.991656,109.588179 250.57966,112.03688 C245.911973,116.740964 244.2815,117.885532 239.616878,119.81258 C235.669418,121.445047 233.481152,122.620301 232.307335,123.731115 C231.688246,124.320276 231.16723,124.71305 231.16723,124.679296 C231.133517,124.614857 230.122134,122.752248 228.914603,120.564374 C226.042888,115.237375 218.279755,102.8251 215.800333,99.6246047 C211.29508,93.7115133 204.24911,85.2515274 202.030196,83.0636529 C200.693944,81.7871371 198.701826,80.2191092 197.592369,79.6330166 C195.799462,78.6510814 195.275381,78.5222024 193.123893,78.5222024 C191.067414,78.5222024 190.350251,78.6848354 188.523632,79.5348231 C182.421619,82.4407377 177.398415,88.0930025 173.221096,96.813815 C170.968469,101.487213 170.318732,103.414261 168.489048,110.827872 C167.741237,113.899488 166.63178,117.557197 166.077052,118.928838 C164.054285,123.764869 160.756562,128.631586 155.503499,134.578431 C154.004813,136.309092 151.427318,139.478902 149.827493,141.599268 C145.064797,147.905134 142.714097,149.733988 135.53634,152.673657 C128,155.745273 123.727674,159.11147 119.875223,164.957053 C117.493875,168.584076 116.286345,171.489991 114.950093,176.783236 C113.546415,182.466186 114.00307,182.239113 108.293352,180.312066 C100.530219,177.697663 99.5494832,177.010308 94.3301323,170.738197 C89.1414295,164.499839 85.5862639,161.167397 82.1598198,159.338542 C79.517964,157.933147 79.3218169,157.902462 76.483814,157.902462 C73.8082455,157.902462 73.3178778,158.000655 71.3594719,158.979522 C67.2495779,161.004764 64.9019427,164.564279 60.6265496,175.215208 C57.950981,181.944533 56.9395977,183.871581 54.9505439,186.093209 C53.218933,187.986503 50.8069371,189.327459 46.5652567,190.665345 C39.2894265,192.985167 36.9724393,194.912215 34.428657,200.727113 C31.6856628,207.063664 29.9571168,209.088906 24.1186768,212.780368 C19.126121,215.950178 14.1672779,220.752455 12.3713063,224.149337 L11.5560701,225.683611 L6.26929368,225.683611 C1.89889185,225.683611 0.921221309,225.781805 0.495214398,226.208333 C-0.123874782,226.82818 -0.157587559,227.055252 0.366492885,227.579974 C0.887508532,228.101627 84.3143727,228.166066 84.6392413,227.610659 C84.7710276,227.448026 84.7710276,226.926373 84.6729541,226.46916 L84.476807,225.683611 L69.6002779,225.683611 L54.720684,225.683611 L54.9168311,224.769184 C55.0486174,224.281285 55.2754124,221.307862 55.4071987,218.171807 C55.7964281,210.331667 56.4185821,208.665446 60.2036075,205.333003 C63.6269868,202.328895 65.5516799,197.723005 66.1401211,191.220752 C66.4987024,187.17027 66.8572838,186.191403 69.6646387,182.239113 C73.0236572,177.436836 74.2311876,174.267027 76.287667,165.119686 C76.8423954,162.637231 77.3971238,160.483111 77.4614846,160.317409 C77.7219924,159.893949 80.7254944,161.136711 82.8126218,162.508352 C85.4544776,164.272767 87.6733913,166.491327 91.816998,171.459306 C96.3191862,176.881429 98.1458057,178.61209 100.821374,179.983731 C103.300796,181.226493 109.534595,183.414367 111.489936,183.739633 C113.187834,184.00046 113.221547,184.29504 111.784156,187.302217 C110.383544,190.177446 108.228991,192.85322 104.704473,196.087469 C99.0621803,201.248766 96.352899,204.483016 93.318749,209.711821 C91.3266304,213.139388 90.8699755,214.74117 91.816998,215.10019 C92.5678735,215.394771 93.1869627,214.707416 94.6550009,211.835256 C96.8739146,207.588386 99.5188352,204.320382 105.685209,198.244658 C111.719796,192.297813 113.448342,190.011745 114.787658,186.191403 C115.112527,185.243222 115.538534,184.328794 115.765329,184.098653 C115.961476,183.905335 116.12391,183.251734 116.12391,182.662573 C116.12391,180.735525 118.116029,173.352599 119.38792,170.609318 C121.769268,165.448021 125.260073,161.167397 129.271893,158.488555 C130.513137,157.672321 133.807794,156.006099 136.581436,154.766406 C139.385727,153.523644 142.487302,152.05381 143.464973,151.464649 C146.01182,149.964129 148.521889,147.383481 151.752186,143.038417 C153.28765,140.979422 155.895793,137.745172 157.526265,135.851878 C165.978978,126.247324 168.424687,121.60768 171.26269,109.784566 C172.730728,103.807035 173.515316,101.585407 176.059098,96.5529884 C178.799028,91.1646187 181.312162,87.7339824 184.380025,85.1533339 L186.074858,83.747939 L185.161548,85.2177734 C182.553405,89.4308893 181.542022,92.7970861 179.74605,103.021487 C179.191322,106.255736 178.213651,110.993574 177.591497,113.574222 C176.451393,118.210798 176.451393,118.342745 176.549466,124.35403 L176.64754,130.46044 L175.440009,132.942895 C173.809537,136.275338 172.111639,137.87712 167.281517,140.555962 C158.179067,145.619066 157.789838,146.140719 156.744742,154.732652 C155.960154,161.136711 153.873026,166.460641 151.359892,168.485883 C150.676442,169.04129 148.751749,170.084596 147.087564,170.805705 C142.159369,172.92914 141.246059,173.874253 139.747373,178.480143 C138.083187,183.512561 136.645797,185.896822 131.785028,191.71172 C130.056482,193.770716 128.064363,196.283856 127.380913,197.265791 C126.694398,198.244658 125.422507,199.910879 124.54291,200.9235 C123.041159,202.718601 122.618217,203.863169 123.33538,204.286628 C124.346763,204.940229 126.305169,203.111375 129.566114,198.407291 C130.283277,197.363985 132.339756,194.749582 134.166376,192.561708 C138.962784,186.845004 139.974168,185.111274 142.095008,178.97111 C143.302538,175.476034 144.182135,174.561607 148.065234,172.959825 C153.189576,170.83639 154.918122,169.04129 157.137036,163.453465 C158.21278,160.743937 158.507001,159.338542 159.35595,153.032677 C160.137473,147.349727 160.26926,147.187093 168.587121,142.516764 C173.447891,139.804168 175.636156,137.81268 177.232916,134.578431 C178.930814,131.181549 179.255683,129.251432 178.832741,124.679296 C178.440446,120.496866 178.605946,118.864399 179.908485,113.638662 C180.821794,109.88276 181.443948,106.844897 182.519693,100.407084 C182.976347,97.6975567 183.662862,94.4970615 184.021443,93.2205457 C185.455769,88.4182686 188.621705,83.4533585 191.425995,81.6582581 C192.992107,80.6763228 193.154541,80.6118833 194.493858,80.9709034 C197.690442,81.8208911 200.007429,83.9780801 207.28326,92.8952796 C214.396656,101.616092 214.819598,102.171499 219.291138,109.229159 C224.544202,117.459004 226.729403,121.346854 230.25392,128.66534 C241.639644,152.216443 243.791133,156.070539 248.296385,160.679498 C251.002602,163.422779 263.369062,175.018821 265.391828,176.718796 C266.108991,177.304889 267.610742,178.67653 268.720199,179.722904 L270.742965,181.683706 L269.829656,183.021593 C268.882633,184.426988 265.587975,190.370765 264.119937,193.245994 C263.663282,194.160421 262.029745,196.253171 260.497346,197.851884 C258.964947,199.453666 257.723704,200.98794 257.723704,201.248766 C257.723704,201.543347 256.874755,201.969875 255.376069,202.427089 C254.070465,202.786109 251.689117,203.504149 250.055579,203.961362 C246.077472,205.136616 243.30383,206.673959 240.594548,209.220853 C237.168104,212.421348 236.386581,212.682175 231.525811,212.421348 C228.880891,212.292469 226.891837,212.323155 225.586233,212.583981 C220.955323,213.532163 213.287199,218.300686 208.294643,223.363789 L206.042017,225.683611 L171.884844,225.683611 C153.091503,225.683611 137.494746,225.781805 137.200526,225.879998 C136.645797,226.110139 136.483363,227.48178 136.973731,227.776361 C137.430385,228.067873 256.353739,227.969679 257.886138,227.708853 C258.995595,227.512466 259.191742,227.349833 259.191742,226.665547 L259.191742,225.849313 L234.299453,225.751119 C220.593677,225.717365 209.437813,225.554732 209.502173,225.422785 C209.566534,225.260152 210.709704,224.149337 212.045956,222.94033 C216.45007,218.954286 221.736847,215.851985 225.586233,214.937557 C226.566968,214.707416 229.175111,214.578537 232.111188,214.642977 C236.975022,214.74117 237.00567,214.74117 238.473708,213.826743 C239.288944,213.335776 241.084916,211.930381 242.454881,210.690687 C245.522743,207.947406 247.447436,207.032979 252.961008,205.563144 C257.953564,204.255943 261.738589,202.457774 270.120811,197.557303 C275.637448,194.326123 280.203997,192.036986 281.21538,192.036986 C282.19305,192.036986 284.837971,194.749582 287.087533,198.014517 C290.155395,202.555968 292.732891,205.52939 295.080526,207.293805 C297.495587,209.12266 303.695673,212.160522 308.295934,213.762304 C314.624742,215.983932 319.975879,219.086234 323.791553,222.743943 C326.859415,225.683611 329.078329,227.319147 329.991639,227.319147 C331.622111,227.319147 331.429029,225.944438 329.633058,224.738499 C329.013968,224.281285 327.217997,222.777697 325.719311,221.372302 C321.149697,217.125432 316.02842,214.08757 309.601538,211.801502 C305.228072,210.267228 298.571331,207.097418 296.484203,205.52939 C294.397076,204.025802 291.264852,200.334339 288.524923,196.219417 C287.348041,194.455002 286.011789,192.758095 285.585782,192.396006 C285.16284,192.07074 284.804258,191.677966 284.804258,191.549087 C284.804258,190.99368 289.600667,191.809914 293.35198,192.985167 C297.887881,194.421248 301.344973,195.074848 308.620803,195.795957 C314.689103,196.415804 317.168524,196.971211 320.202674,198.407291 C323.108103,199.812686 329.795492,203.961362 330.644441,204.87579 C331.885684,206.24743 340.693913,210.169034 348.426398,212.780368 C354.755206,214.937557 355.962736,215.428525 358.313436,216.800166 C360.400564,218.009174 361.574381,218.073613 361.736816,216.962799 C361.932963,215.52365 357.88743,213.335776 350.253018,210.822635 C342.030165,208.110039 334.395753,204.842036 334.395753,204.025802 C334.395753,203.470395 338.735507,198.146465 341.184281,195.728449 C345.815191,191.122559 349.404069,189.097318 352.928586,189.097318 C356.419391,189.097318 358.083577,189.981059 363.925081,194.847776 C365.555554,196.185663 367.970615,197.821199 369.273154,198.505485 L371.721927,199.714492 L377.59408,199.877125 C384.315182,200.073513 384.771837,200.20546 389.666319,203.439709 C393.745565,206.084797 394.591449,206.24743 403.402743,206.149237 C411.818679,206.051043 413.712724,206.345624 418.53978,208.502813 C425.457029,211.571361 427.087502,212.258715 429.471915,213.108703 C430.90624,213.630356 432.962719,214.676731 434.038463,215.428525 C441.412367,220.688016 442.163243,221.111475 448.393977,223.431297 C450.677251,224.281285 452.733731,225.128204 452.929878,225.324591 C453.190386,225.585418 446.469284,225.683611 429.438202,225.683611 C414.2981,225.683611 405.263076,225.815559 404.708347,226.011946 C404.055545,226.239018 403.859398,226.533599 403.957472,227.089006 L404.055545,227.807046 L474.953516,227.807046 C537.59492,227.807046 545.882134,227.742607 546.142642,227.319147 C546.338789,227.055252 546.436862,226.598039 546.372502,226.337212 C546.308141,225.913752 541.021364,225.849313 501.608063,225.781805 C459.126899,225.683611 456.877338,225.652926 456.420683,225.097519 C455.246865,223.692124 453.288459,222.645749 448.72191,220.948842 C446.046342,219.936222 442.978479,218.595266 441.902735,217.97542 C439.291527,216.407392 436.845818,214.544783 436.845818,214.08757 C436.845818,213.860497 437.627342,212.847876 438.574364,211.767748 C443.695642,206.020358 448.982418,198.342852 452.601944,191.515333 C454.137408,188.640104 456.91105,183.64144 458.768318,180.407191 C463.957021,171.489991 464.643536,170.18279 464.511749,169.40031 C464.447388,168.878657 464.186881,168.68227 463.632152,168.68227 C463.009998,168.68227 462.587056,169.170169 461.413239,171.293604 C460.598002,172.732753 458.541523,176.326022 456.812977,179.299445 C455.115079,182.269799 452.405797,187.10583 450.775325,190.079253 C449.178565,193.049607 447.318233,196.283856 446.665431,197.265791 C442.748619,203.111375 438.476291,208.6992 436.876466,210.13528 C436.484172,210.4943 435.865083,211.279849 435.506502,211.865941 L434.8537,212.943001 L433.321301,212.160522 C432.472352,211.737062 430.483298,210.91776 428.849761,210.331667 C427.253001,209.742506 424.249499,208.469059 422.226732,207.520878 C420.173318,206.542011 417.301602,205.366757 415.864212,204.87579 C413.222356,203.995116 413.093634,203.961362 404.542848,203.961362 C394.689523,203.927608 394.689523,203.927608 390.058613,200.889746 C385.881294,198.180219 384.707476,197.851884 378.115096,197.624811 C372.503451,197.428424 372.341017,197.39467 370.284537,196.38205 C369.11072,195.795957 366.337077,193.835155 364.087516,192.006301 C359.128673,187.986503 357.332701,187.072076 353.93997,186.875689 C350.939533,186.713056 348.78498,187.268463 345.848903,188.999124 C343.173335,190.600906 337.984632,195.501376 334.984195,199.321718 C333.712304,200.98794 332.538486,202.457774 332.372987,202.620407 C332.244265,202.816794 331.885684,202.718601 331.557751,202.427089 C330.610728,201.64154 323.662831,197.428424 321.379557,196.283856 C318.507841,194.847776 315.473691,194.160421 309.436039,193.540575 C302.031487,192.758095 298.638756,192.168934 295.080526,191.024365 C286.958811,188.443717 282.683418,188.477471 276.811265,191.190067 C274.886572,192.07074 266.795506,196.642876 263.369062,198.800065 C262.323966,199.419912 262.422039,199.159085 263.92379,197.526618 C264.640953,196.774824 266.108991,194.421248 267.184735,192.365321 C270.448745,186.059455 272.437799,183.055347 275.570022,179.560271 C279.192613,175.509788 283.042,170.47737 283.302507,169.434064 C283.596728,168.452129 283.955309,166.884101 284.608111,164.107065 C285.031053,162.247525 285.947428,160.483111 289.438233,154.634459 C291.785868,150.682169 293.872995,147.153339 294.102855,146.794319 C294.299002,146.435299 295.114239,144.606445 295.895762,142.743836 C296.68035,140.881228 297.658021,138.95418 298.114676,138.432527 C299.224133,137.091572 301.118178,136.078951 304.737704,134.903697 C310.775356,132.91221 312.179033,131.442375 314.2018,124.940123 C315.964059,119.321612 316.779295,117.428318 319.028857,113.669347 C321.802499,109.097211 322.16108,108.247224 323.466684,103.837721 C324.802936,99.2655846 325.164582,98.4800364 326.436473,97.1728351 C328.296806,95.3132952 330.58008,94.527747 335.376489,94.0705334 C339.780603,93.6470738 341.57351,93.0241586 343.0109,91.4254453 C344.60766,89.6272764 345.098028,87.6020349 345.652756,80.3173027 C346.339271,71.2374702 346.403632,70.9766436 352.603718,57.189659 C357.528848,46.280972 359.291107,42.9792147 368.231123,28.3790649 C369.503014,26.2863154 371.884362,22.042514 373.548547,18.9064583 C375.179019,15.7704026 377.496007,11.7199197 378.669824,9.95550475 C380.661943,6.91764256 384.217108,2.89784512 384.903623,2.89784512 C385.09977,2.89784512 385.424639,3.6496393 385.620786,4.5640665 C386.209227,7.04652157 385.847581,10.869932 384.477616,16.2920557 C382.488562,24.261074 382.390489,30.0452863 384.020961,39.1588729 C385.197844,45.6273714 384.545042,48.0760724 380.235936,53.0409825 C377.073065,56.7324454 375.571314,59.7058681 375.148371,63.2346979 C374.167636,71.3663492 373.64662,72.446478 368.816499,76.3987674 C365.000826,79.5010691 363.955729,81.6889435 362.978059,88.3875831 C362.389618,92.241679 361.770529,93.6777593 359.517902,96.1602143 C356.355031,99.6583587 356.29067,100.278205 357.430775,110.861626 C358.540231,120.987834 358.672018,129.613521 357.789356,132.91221 C356.355031,138.269894 353.581388,142.547449 348.524472,147.187093 C343.761776,151.532157 339.422022,155.87722 333.320009,162.474598 C329.14269,166.94854 328.198732,168.191302 328.263093,168.844903 C328.394879,169.857524 329.338837,170.084596 330.221499,169.268362 C330.610728,168.943096 333.678591,165.675093 337.071322,161.98363 C340.497766,158.292167 345.327888,153.425451 347.807309,151.139383 C353.287168,146.110033 355.408008,143.756457 357.234628,140.555962 C361.313874,133.400109 361.638742,128.174372 359.32482,107.105724 C358.672018,101.192633 358.834452,100.440838 361.378234,97.5993632 C363.759582,94.9205211 364.608531,92.9934731 365.227621,88.8110427 C366.208356,82.2136652 366.695659,81.299238 371.982435,76.6258399 C375.277093,73.7536793 376.38655,71.5964903 376.843205,67.2176728 C377.59408,60.4576622 378.378668,58.5950538 382.390489,54.0229178 C386.402309,49.4814672 387.447405,45.9526374 386.469735,40.2359331 C384.934271,31.5458061 384.86991,30.7295725 385.228492,25.7646623 C385.489,22.3033406 385.915007,19.7533775 386.763956,16.2920557 C387.707913,12.5023993 387.968421,10.869932 388.002134,8.12665034 C388.035847,6.23028789 387.937773,4.23880045 387.805987,3.7140788 L387.511766,2.73521209 L388.492502,3.68339332 C390.089261,5.18391313 391.364217,7.96094877 393.874287,15.3776285 C397.138297,25.0466222 399.096702,28.4435044 405.293724,35.46741 C406.829188,37.231825 408.980676,39.876913 410.05642,41.3467474 C413.482864,46.050831 415.799851,48.1098264 424.316924,54.0873573 C431.102387,58.8221263 437.495556,64.8027257 440.171124,68.8838941 C441.084434,70.2248495 443.174626,74.1126994 444.869459,77.5402671 C446.665431,81.2010445 448.49205,84.4015397 449.273574,85.3159669 C450.024449,86.1659546 452.341437,88.3200751 454.431629,90.08449 C456.518756,91.8489049 459.323046,94.4633075 460.726724,95.8687023 C463.436005,98.6764234 466.534516,102.239007 466.534516,102.564273 C466.534516,102.696221 465.066478,104.457567 463.270506,106.482809 C459.586619,110.6008 458.670244,111.938686 455.930315,116.971105 C454.888284,118.928838 453.35282,121.346854 452.537584,122.359474 C451.201332,124.025696 450.54853,124.482909 447.122086,126.182885 C442.227604,128.631586 439.846256,130.853214 437.985923,134.774818 C434.332684,142.41857 433.483735,144.017284 432.080058,145.585312 C430.317799,147.610553 428.819113,148.52498 425.196521,149.865936 C419.618589,151.921863 417.203528,153.557398 414.822181,156.889841 C411.067803,162.180017 408.033653,170.084596 409.437331,170.968338 C410.35064,171.523745 410.939082,170.707511 411.984178,167.439508 C413.645298,162.180017 417.365963,156.432628 420.271391,154.600705 C420.988554,154.143491 423.403615,153.032677 425.653176,152.152004 C427.87209,151.27133 430.219725,150.191202 430.90624,149.767742 C433.615521,148.067767 436.027517,144.572691 438.801159,138.398773 C441.639162,132.126662 442.846693,130.853214 448.623837,128.076179 C453.515254,125.725671 454.397916,124.679296 459.911488,114.749476 C460.791085,113.117009 462.553343,110.797187 464.447388,108.704437 C466.142222,106.844897 468.361135,103.969668 469.372519,102.367886 C473.942132,94.9205211 476.485915,92.5362595 487.414984,85.3804064 C493.158415,81.624504 495.475403,79.2402425 499.977591,72.4771635 C501.966645,69.5374948 503.762616,67.0550397 504.023124,66.9906002 C504.773999,66.7297737 504.151846,71.2374702 502.913667,75.0271266 C500.271811,82.9317054 499.977591,86.7551157 501.476277,93.5795658 C504.185558,105.99491 506.992913,110.404413 518.246851,119.74814 C522.847113,123.568482 525.066027,126.050937 528.492471,131.114041 C531.689055,135.818124 532.865937,138.334333 534.888704,145.063658 C538.866812,158.163288 539.976268,160.710183 542.587476,163.161953 C544.251662,164.696226 547.678106,166.917855 551.754287,169.04129 C557.267858,171.916519 559.456124,174.202587 565.067769,183.055347 C568.558574,188.54191 570.418906,190.99368 574.985455,196.154977 C579.68379,201.478907 584.284052,205.366757 585.393509,204.909544 C585.98195,204.679403 586.306819,203.961362 586.080024,203.372201 C585.98195,203.175814 585.034927,202.328895 583.925471,201.512661 C579.193423,197.983832 572.800254,190.468958 566.796315,181.290932 C560.95481,172.438172 558.444741,169.857524 552.833096,166.917855 C548.13476,164.4354 544.610243,162.081824 543.402712,160.645744 C541.674166,158.586748 540.304202,154.993479 537.009544,143.854651 C535.277933,137.941559 533.190806,133.664004 529.831787,128.990606 C525.979336,123.602236 524.023995,121.509487 519.390021,117.722899 C511.691248,111.417033 507.87251,106.679196 505.717957,100.766104 C504.446066,97.2403431 503.140462,91.2628123 502.879954,87.7984219 C502.619447,84.3371002 503.011741,81.9835241 504.740287,76.7240334 C505.883456,73.2289576 506.600619,69.4393013 506.66498,66.3369996 C506.698693,65.0297983 509.113753,67.2176728 511.167168,70.451922 C512.04983,71.8235628 514.136957,75.3861466 515.801142,78.3595693 C522.326097,89.9218569 529.34142,98.9065645 534.56077,102.432326 C535.636515,103.153434 538.50823,104.819656 540.923291,106.123789 C550.188175,111.122453 555.671099,114.912109 559.780993,119.125225 C561.739398,121.119781 562.456561,122.132402 563.795878,125.038316 C564.709188,126.934679 565.686858,128.990606 565.981079,129.613521 C567.351043,132.323049 572.864615,136.407286 580.336592,140.227627 C582.359359,141.274002 584.872493,142.77759 585.948237,143.56007 C588.657519,145.554626 592.537553,149.310528 594.235451,151.562842 C595.801563,153.621838 598.737639,159.206595 600.956553,164.401646 C603.794556,170.903898 608.100597,176.065196 614.594903,180.701771 C620.142188,184.65406 623.274411,188.345523 625.263465,193.245994 C627.090085,197.723005 629.342711,202.068068 631.006896,204.222189 C631.950854,205.495636 634.856282,208.370865 637.596212,210.755127 C643.272218,215.720037 645.883425,218.62902 648.037978,222.483116 C648.883863,224.01739 649.570377,225.358345 649.570377,225.456539 C649.570377,225.585418 644.807681,225.683611 638.999889,225.683611 L628.395688,225.683611 L627.286232,224.281285 C626.667142,223.529491 625.327826,221.568689 624.285794,219.966907 C622.848404,217.647085 621.055497,215.655598 616.029229,210.656933 C607.90445,202.589722 605.100159,198.668118 599.454802,187.431096 C594.397885,177.271135 591.756029,173.677865 584.023544,166.460641 C580.563387,163.226392 571.690797,155.87722 570.385193,155.156112 C569.830465,154.8646 569.569957,154.895285 569.177663,155.321813 C568.883442,155.58264 568.656647,155.94166 568.656647,156.070539 C568.656647,156.432628 570.155334,157.770514 574.038432,160.842131 C582.129499,167.212436 588.461372,173.515232 591.918464,178.645844 C592.831773,179.983731 595.213121,184.230601 597.20524,188.118451 C603.990703,201.150573 605.979756,203.995116 614.168896,212.126768 C619.225813,217.125432 620.85935,218.98804 622.68597,221.765076 C623.924148,223.65837 624.969244,225.293906 625.033605,225.422785 C625.101031,225.554732 613.093152,225.717365 598.379058,225.751119 C573.287557,225.849313 571.592724,225.879998 571.037995,226.435406 C570.615053,226.82818 570.547628,227.153446 570.777488,227.512466 C571.071708,227.969679 576.517854,228.003433 622.327389,227.969679 C650.483687,227.969679 673.64743,227.8408 673.812929,227.678167 C673.975363,227.512466 674.039724,227.055252 673.975363,226.631793 L673.87729,225.849313 L663.273089,225.751119 L652.668888,225.683611 L651.072128,222.808382 C647.872479,217.159186 646.04586,215.10019 637.075196,206.965471 C632.474934,202.786109 630.810749,200.236146 627.678526,192.561708 C625.425899,187.041391 621.837021,182.825206 615.508213,178.31751 C611.658827,175.574228 608.590964,172.502612 606.209616,169.04129 C605.621175,168.191302 603.828268,164.72998 602.292805,161.363784 C598.835712,153.980858 597.367674,151.433963 594.823892,148.426787 C592.669339,145.846138 588.363298,142.090236 585.623369,140.359575 C584.642633,139.739728 581.902704,138.23614 579.585717,137.027132 C574.985455,134.676625 570.28712,131.374867 568.819082,129.481573 C568.328714,128.827973 567.384756,126.999118 566.698241,125.397337 C566.011727,123.829309 564.935983,121.705874 564.283181,120.727007 C560.890449,115.630149 553.810766,110.306219 541.576093,103.675088 C539.323466,102.46608 536.681611,100.898052 535.70394,100.210697 C530.873819,96.9120085 524.217077,88.2893896 518.084417,77.3776341 C514.299391,70.648309 511.234594,65.9442255 509.92899,64.8334112 C508.491599,63.6581575 506.536258,63.1671898 504.936434,63.6581575 C502.94738,64.2473186 501.249482,66.076173 497.694316,71.4982967 C495.833984,74.2753324 493.483284,77.4113881 492.40754,78.4577629 C491.362444,79.5348231 488.101499,82.0172781 485.13171,84.0087656 C475.768752,90.280877 472.569103,93.1223522 469.436879,97.8601897 L467.90448,100.210697 L466.338369,98.3511574 C463.436005,94.9205211 460.85851,92.3736265 456.91105,88.9736757 C450.809038,83.747939 450.383031,83.2262859 446.729792,75.8771143 C444.967533,72.3145304 442.816045,68.2978015 441.933383,66.9906002 C438.899233,62.4829037 431.853263,56.2752318 421.80379,49.2850802 C417.595823,46.3454115 415.180762,43.9918355 411.754318,39.551647 C410.154493,37.428212 407.708785,34.4885433 406.33882,32.951201 C401.281903,27.2989362 398.931203,22.9876267 395.768332,13.4168265 C393.05905,5.18391313 391.266144,1.98341792 388.52315,0.611777109 C387.055111,-0.140017069 385.881294,-0.20445657 384.379543,0.449144083" id="Fill-1"></path>
                <path d="M398.217218,48.2436905 C397.634728,48.8301416 398.183846,50.0977311 400.349979,52.9597345 C401.609006,54.6824344 403.708395,57.2512123 404.967422,58.6501424 C408.744502,62.8774771 413.847353,69.1848805 415.303577,71.426834 C416.043824,72.5997362 417.627467,75.7213663 418.789412,78.3542872 C421.082964,83.5895847 422.666608,86.2561044 424.344299,87.6214358 C424.926788,88.110145 426.929096,89.2799927 428.80095,90.2207579 C433.451765,92.5971065 435.326653,94.4816914 437.844707,99.393219 C438.90957,101.439689 440.23534,103.910725 440.81783,104.820946 C441.430657,105.764765 442.33473,107.389724 442.850476,108.431285 C443.369255,109.472847 444.012421,110.511354 444.303666,110.740436 C444.886155,111.229145 445.726518,111 445.98439,110.285326 C446.178554,109.796617 444.531201,106.351217 442.723056,103.489213 C442.140567,102.578992 441.075703,100.593611 440.29905,99.0663948 C437.359299,93.1499588 434.938327,90.645324 429.674685,88.110145 C424.765997,85.7337964 424.602172,85.5077684 419.371902,74.2888374 C417.530385,70.3211294 415.625159,67.6882085 410.103644,61.2189202 C403.641651,53.705016 403.189615,53.1521637 401.351133,50.5192428 C399.70378,48.2100917 398.863417,47.5930963 398.217218,48.2436905" id="Fill-4"></path>
                <path d="M481.276693,116.365561 C481.115197,116.593643 480.72517,117.953014 480.432649,119.376247 C479.104118,125.723017 473.881407,132.681048 460.483356,145.794259 C456.753718,149.48311 452.893056,153.564262 451.887517,154.85977 C448.547907,159.357553 444.653726,166.644022 441.573119,174.185943 C438.751514,181.113562 437.809964,182.6037 433.559274,186.940305 C429.765648,190.826827 429.244596,191.766526 430.868694,191.991567 C431.517724,192.088882 432.392239,191.377266 435.570353,188.108086 C439.949021,183.640714 440.890571,182.184029 443.876719,174.736382 C446.536828,168.16457 450.330454,161.008869 453.444579,156.60536 C454.191116,155.537935 458.472277,151.0067 462.91798,146.569739 C476.767001,132.681048 481.048161,126.918168 482.541235,119.960138 C483.062287,117.563753 483.126276,116.852136 482.800238,116.462876 C482.315751,115.878985 481.697191,115.848574 481.276693,116.365561" id="Fill-6"></path>
                <path d="M204.801537,127.615236 C207.829263,132.565987 209.263764,136.28058 211.144488,144.031045 C212.866489,151.166491 212.962322,151.460232 215.89721,157.549227 C219.434049,164.813184 221.314773,167.842383 224.695883,171.523318 C228.169832,175.302167 236.522283,185.659579 236.522283,186.213402 C236.522283,187.223135 235.183615,188.364439 233.240001,188.982518 C228.586107,190.448161 224.471275,192.467626 218.891993,195.952735 C215.480935,198.070114 207.32015,201.264542 204.322371,201.622538 C202.570423,201.818365 200.977198,201.328798 200.498033,200.38332 C199.668478,198.819764 200.719647,192.467626 203.525759,182.339699 C205.852706,173.90078 206.077314,172.502453 206.044372,167.028477 C206.014424,162.597891 205.885648,161.425989 204.514037,154.553686 C202.696204,145.172349 202.187091,141.001847 201.773811,131.849995 C201.612092,127.908977 201.357536,124.325955 201.261703,123.870045 C201.070036,123.086737 201.102979,123.120395 202.220033,124.194384 C202.88787,124.812462 204.037867,126.345421 204.801537,127.615236 M198.713142,120.449192 C198.521476,120.969358 198.584366,121.654752 199.189312,125.008289 C199.380979,126.085338 199.668478,130.41801 199.860144,134.619111 C200.210534,143.088628 200.593866,146.019913 202.47459,155.627675 C204.609871,166.572567 204.514037,170.091333 201.773811,180.057091 C199.285145,189.147747 198.233976,193.966927 198.075253,197.323524 C197.916529,200.254809 197.97942,200.677061 198.551424,201.653136 C199.380979,202.990267 201.453369,203.966342 203.399978,204 C206.840984,204 215.801376,200.677061 220.86855,197.516291 C225.333772,194.750235 228.202775,193.31519 232.856668,191.65372 C236.651059,190.285991 237.034391,190.059566 237.893894,188.820349 C238.403007,188.104356 238.882173,186.932454 238.945063,186.213402 C239.106782,185.0415 238.978006,184.815075 237.639338,183.315775 C236.809783,182.403955 234.674502,179.864324 232.856668,177.615373 C231.071777,175.366423 228.361498,172.144457 226.831164,170.44933 C223.22844,166.444056 221.251882,163.347542 218.095381,156.931148 C215.226378,151.03492 214.333933,148.461631 212.899431,141.947324 C211.752429,136.73649 210.443709,133.153468 208.116762,128.91871 C205.726925,124.619695 204.19659,122.664485 201.995425,121.229441 C199.955977,119.895369 199.000641,119.665884 198.713142,120.449192" id="Fill-8"></path>
                <path d="M80.8736773,179.692613 C80.5458168,180.583503 79.7540027,184.021501 78.8663049,188.571616 C77.975514,193.283167 75.6062579,200.123288 73.3019552,204.801954 C70.7966059,209.830399 70.3697687,211.32817 70.1068617,215.686953 C69.9089081,218.742287 69.9738616,219.316283 70.4037919,219.666062 C70.7007222,219.920174 71.192513,220.048726 71.5234665,219.982955 C72.0492806,219.887289 72.1482573,219.411949 72.3462108,216.32373 C72.5750946,212.156279 73.2029784,210.054616 75.5722346,205.37595 C77.9105605,200.760065 80.3787935,193.187501 81.3685611,187.58506 C81.7953983,185.037952 82.3892589,182.302502 82.6861892,181.507278 C82.9490962,180.712054 83.0790032,179.821165 82.9490962,179.534167 C82.6521659,178.738943 81.2015378,178.864504 80.8736773,179.692613" id="Fill-10"></path>
            </g>
            <path d="M1025.084,193.856584 C1045.72463,204.698759 1068.88164,212.430984 1095.36446,217.106862 L1096.27096,217.037193 L1100.93422,216.685723 L1105.59618,216.331117 C1109.48022,216.034594 1113.3614,215.735884 1117.236,215.437684 C1178.67292,210.705718 1237.69294,206.162485 1281.64477,212.009758 C1283.36061,211.745756 1285.08915,211.473701 1286.826,211.196584 C1335.10276,203.485944 1364.40298,209.302538 1392.40882,215.191085 L1394.122,215.551584 L1395.74679,215.893276 C1396.28787,216.006976 1396.82848,216.120441 1397.36873,216.233566 L1398.98857,216.57181 C1399.52825,216.684145 1400.06771,216.796033 1400.60708,216.907366 L1402.22503,217.239592 C1402.49468,217.294649 1402.76435,217.349542 1403.03403,217.404255 L1404.65257,217.730281 C1412.42911,219.284856 1420.25246,220.668627 1428.50457,221.561323 L1429.04,221.416584 C1450.71519,215.57933 1470.2647,215.264727 1488.51667,218.000037 C1496.74512,216.410817 1505.04734,215.740439 1513.51642,215.734668 C1598.76042,203.936686 1675.55721,208.632174 1752.78484,220.280124 C1769.00442,213.368326 1782.53423,210.766641 1796.35042,210.72414 C1845.72194,200.744273 1877.69266,209.523463 1906.425,217.415584 C1935.872,225.502584 1963.688,233.141584 2005.565,219.783584 C2016.789,216.203584 2028.069,210.733584 2038.979,205.444584 C2066.552,192.070584 2092.601,179.440584 2118.187,194.561584 C2133.39343,203.548977 2150.30458,200.554589 2166.72814,197.396499 L2167.86,197.178584 C2175.728,195.662584 2183.161,194.561584 2190,194.561584 L2190,427.441406 L810,427.441406 L810,194.242584 C848.721,194.242584 881.989,190.675584 911.339,187.528584 C958.526,182.468584 995.798,178.470584 1025.084,193.856584 Z" id="Combined-Shape-Copy" fill="#F7F5EF"></path>
            <path d="M0,233 C118.507812,233 227.375,206.232084 335.855469,206.232084 C444.335937,206.232084 449.097656,250 539.339844,250 C599.501302,250 689.721354,236.552228 810,209.656684 C820.058,209.656684 829.807,209.011684 839.234,208.387684 C861.686,206.900684 882.894,205.494684 906.771,212.367684 C959.618,227.569684 1039.744,221.401684 1117.236,215.437684 C1203.952,208.758684 1285.853,202.455684 1327.364,225.215684 C1359.697,242.941684 1418.508,232.302684 1470.401,222.911684 C1483.619,220.518684 1496.105,218.261684 1507.608,216.574684 C1634.782,197.920684 1742.879,216.120684 1860.97,239.934684 C1916.322,251.088684 1955.685,237.286684 1993.751,223.932684 C2034.161,209.750684 2072.327,196.361684 2122.623,218.836684 C2133.076,223.501684 2143.646,220.166684 2155.89,216.293684 C2165.735,213.183684 2176.894,209.656684 2190,209.656684 C2218.36198,209.593904 2245.83984,214.012238 2272.43359,222.911684 C2312.32422,236.260852 2456.39844,197.092872 2545.77344,199.879033 C2635.14844,202.665195 2685.35937,229 2743,229 C2800.64062,229 2897.98828,306.734629 3000,199.879033" id="Stroke-1-Copy" stroke="#CED2DA" stroke-width="2"></path>
            <path d="M0,183 C202.604167,228.333333 472.604167,232.080861 810,194.242584 C848.721,194.242584 881.989,190.675584 911.339,187.528584 C958.526,182.468584 995.798,178.470584 1025.084,193.856584 C1084.768,225.207584 1165.492,230.555584 1286.826,211.196584 C1336.088,203.328584 1365.591,209.545584 1394.122,215.551584 C1421.23,221.254584 1446.827,226.640584 1486.872,218.327584 C1515.085,212.456584 1544.085,217.584584 1577.665,223.512584 C1629.463,232.653584 1688.159,243.010584 1766.886,218.370584 C1833.709,197.445584 1872.345,208.054584 1906.425,217.415584 C1935.872,225.502584 1963.688,233.141584 2005.565,219.783584 C2016.789,216.203584 2028.069,210.733584 2038.979,205.444584 C2066.552,192.070584 2092.601,179.440584 2118.187,194.561584 C2133.743,203.755584 2151.083,200.410584 2167.86,197.178584 C2175.728,195.662584 2183.161,194.228584 2190,194.228584 C2196.839,194.228584 2418.78125,177.214349 2493.08984,202.665195 C2567.39844,228.116042 2742.34766,242 2786.78125,234 C2831.21484,226 2870.47656,205.567167 2890.6875,219.783584 C2910.89844,234 2986.76953,184.838179 3000,163.497214" id="Stroke-3-Copy" stroke="#CED2DA" stroke-width="2"></path>
            <path d="M0,286 C67.7734375,286 150.765625,236 199.40625,233.682972 C248.046875,231.365944 258.664063,250 378.507812,250 C498.351562,250 598.503906,202.665195 653.675781,202.665195 C708.847656,202.665195 783.999,218.051584 810,218.051584 C836.001,218.051584 860.745,215.331584 886.944,212.449584 C947.888,205.749584 1010.908,198.815584 1100.621,224.287584 C1130.681,232.820584 1162.644,233.417584 1193.553,233.996584 C1219.244,234.477584 1245.811,234.973584 1271.474,239.967584 C1325.399,250.454584 1359.545,240.861584 1406.799,227.577584 C1413.908,225.580584 1421.284,223.505584 1429.04,221.416584 C1478.3,208.150584 1516.581,223.408584 1553.604,238.165584 C1601.997,257.457584 1652.037,277.408584 1727.761,233.096584 C1777.254,204.139584 1800.158,208.543584 1845.779,217.321584 C1881.134,224.123584 1929.567,233.442584 2014.691,231.375584 C2036.49,230.847584 2051.625,225.299584 2066.26,219.936584 C2086.759,212.429584 2104.46,205.942584 2134.184,215.794584 C2153.422,222.171584 2170.18,220.158584 2181.269,218.824584 C2184.719,218.411584 2187.698,218.051584 2190,218.051584 C2212.80208,224.69736 2231.31901,228.020248 2245.55078,228.020248 C2266.89844,228.020248 2303.45312,206.824386 2368.22656,206.824386 C2433,206.824386 2450.37891,245 2509.80469,245 C2569.23047,245 2715.16406,199.594154 2765,199.735927 C2814.83594,199.879033 2812.10547,239.967584 3000,239.967584" id="Stroke-5-Copy" stroke="#CED2DA" stroke-width="2"></path>
            <circle id="Oval-4-Copy-72" stroke="#CED2DA" stroke-width="2" fill="#F7F5EF" cx="1039" cy="297" r="10"></circle>
            <circle id="Oval-4-Copy-71" stroke="#CED2DA" stroke-width="2" fill="#F7F5EF" cx="1171" cy="275" r="10"></circle>
            <circle id="Oval-4-Copy-70" stroke="#CED2DA" stroke-width="2" fill="#F7F5EF" cx="1066" cy="459" r="6"></circle>
            <circle id="Oval-4-Copy-69" stroke="#CED2DA" stroke-width="2" fill="#F7F5EF" cx="900" cy="352" r="6"></circle>
            <circle id="Oval-4-Copy-75" stroke="#CED2DA" stroke-width="2" fill="#F7F5EF" cx="475" cy="297" r="10"></circle>
            <circle id="Oval-4-Copy-74" stroke="#CED2DA" stroke-width="2" fill="#F7F5EF" cx="607" cy="275" r="10"></circle>
            <circle id="Oval-4-Copy-73" stroke="#CED2DA" stroke-width="2" fill="#F7F5EF" cx="336" cy="352" r="6"></circle>
            <circle id="Oval-4-Copy-68" stroke="#CED2DA" stroke-width="2" fill="#F7F5EF" cx="1147" cy="257" r="6"></circle>
            <circle id="Oval-4-Copy-86" stroke="#CED2DA" stroke-width="2" fill="#F7F5EF" cx="661" cy="338" r="6"></circle>
            <circle id="Oval-4-Copy-67" stroke="#CED2DA" stroke-width="2" fill="#F7F5EF" cx="1054" cy="280" r="5"></circle>
            <circle id="Oval-4-Copy-85" stroke="#CED2DA" stroke-width="2" fill="#F7F5EF" cx="753" cy="297" r="10"></circle>
            <circle id="Oval-4-Copy-84" stroke="#CED2DA" stroke-width="2" fill="#F7F5EF" cx="768" cy="280" r="5"></circle>
            <circle id="Oval-4-Copy-66" stroke="#CED2DA" stroke-width="2" fill="#F7F5EF" cx="1103" cy="446" r="3"></circle>
            <circle id="Oval-4-Copy-89" stroke="#CED2DA" stroke-width="2" fill="#F7F5EF" cx="590" cy="459" r="6"></circle>
            <circle id="Oval-4-Copy-88" stroke="#CED2DA" stroke-width="2" fill="#F7F5EF" cx="627" cy="446" r="3"></circle>
            <circle id="Oval-4-Copy-65" stroke="#CED2DA" stroke-width="2" fill="#F7F5EF" cx="1188" cy="246" r="3"></circle>
            <circle id="Oval-4-Copy-64" stroke="#CED2DA" stroke-width="2" fill="#F7F5EF" cx="1272" cy="229" r="3"></circle>
            <circle id="Oval-4-Copy-63" stroke="#CED2DA" stroke-width="2" fill="#F7F5EF" cx="1923" cy="453" r="10"></circle>
            <circle id="Oval-4-Copy-62" stroke="#CED2DA" stroke-width="2" fill="#F7F5EF" cx="2002" cy="264" r="10"></circle>
            <circle id="Oval-4-Copy-61" stroke="#CED2DA" stroke-width="2" fill="#F7F5EF" cx="1873" cy="441" r="10"></circle>
            <circle id="Oval-4-Copy-60" stroke="#CED2DA" stroke-width="2" fill="#F7F5EF" cx="1950" cy="453" r="6"></circle>
            <circle id="Oval-4-Copy-59" stroke="#CED2DA" stroke-width="2" fill="#F7F5EF" cx="2120" cy="332" r="6"></circle>
            <circle id="Oval-4-Copy-83" stroke="#CED2DA" stroke-width="2" fill="#F7F5EF" cx="2271" cy="264" r="10"></circle>
            <circle id="Oval-4-Copy-82" stroke="#CED2DA" stroke-width="2" fill="#F7F5EF" cx="2389" cy="332" r="6"></circle>
            <circle id="Oval-4-Copy-58" stroke="#CED2DA" stroke-width="2" fill="#F7F5EF" cx="1587" cy="458" r="10"></circle>
            <circle id="Oval-4-Copy-57" stroke="#CED2DA" stroke-width="2" fill="#F7F5EF" cx="1371" cy="257" r="10"></circle>
            <circle id="Oval-4-Copy-56" stroke="#CED2DA" stroke-width="2" fill="#F7F5EF" cx="1654" cy="275" r="6"></circle>
            <circle id="Oval-4-Copy-55" stroke="#CED2DA" stroke-width="2" fill="#F7F5EF" cx="1901" cy="408" r="6"></circle>
            <circle id="Oval-4-Copy-54" stroke="#CED2DA" stroke-width="2" fill="#F7F5EF" cx="1969" cy="251" r="5"></circle>
            <circle id="Oval-4-Copy-53" stroke="#CED2DA" stroke-width="2" fill="#F7F5EF" cx="2090" cy="230" r="3"></circle>
            <circle id="Oval-4-Copy-52" stroke="#CED2DA" stroke-width="2" fill="#F7F5EF" cx="1837" cy="491" r="3"></circle>
            <circle id="Oval-4-Copy-51" stroke="#CED2DA" stroke-width="2" fill="#F7F5EF" cx="1661" cy="390" r="3"></circle>
            <circle id="Oval-4-Copy-50" stroke="#CED2DA" stroke-width="2" fill="#F7F5EF" cx="1677" cy="406" r="3"></circle>
            <circle id="Oval-4-Copy-81" stroke="#CED2DA" stroke-width="2" fill="#F7F5EF" cx="2754" cy="264" r="10"></circle>
            <circle id="Oval-4-Copy-80" stroke="#CED2DA" stroke-width="2" fill="#F7F5EF" cx="2872" cy="332" r="6"></circle>
            <circle id="Oval-4-Copy-79" stroke="#CED2DA" stroke-width="2" fill="#F7F5EF" cx="2339" cy="458" r="10"></circle>
            <circle id="Oval-4-Copy-78" stroke="#CED2DA" stroke-width="2" fill="#F7F5EF" cx="2413" cy="390" r="3"></circle>
            <circle id="Oval-4-Copy-77" stroke="#CED2DA" stroke-width="2" fill="#F7F5EF" cx="2429" cy="406" r="3"></circle>
            <circle id="Oval-4-Copy-49" stroke="#CED2DA" stroke-width="2" fill="#F7F5EF" cx="1704" cy="348" r="3"></circle>
            <circle id="Oval-4-Copy-90" stroke="#CED2DA" stroke-width="2" fill="#F7F5EF" cx="2789" cy="348" r="3"></circle>
            <circle id="Oval-4-Copy-48" stroke="#CED2DA" stroke-width="2" fill="#F7F5EF" cx="1320" cy="439" r="10"></circle>
            <circle id="Oval-4-Copy-47" stroke="#CED2DA" stroke-width="2" fill="#F7F5EF" cx="1298" cy="475" r="6"></circle>
            <circle id="Oval-4-Copy-46" stroke="#CED2DA" stroke-width="2" fill="#F7F5EF" cx="1294" cy="456" r="5"></circle>
            <circle id="Oval-4-Copy-45" stroke="#CED2DA" stroke-width="2" fill="#F7F5EF" cx="1354" cy="468" r="3"></circle>
            <circle id="Oval-4-Copy-44" stroke="#CED2DA" stroke-width="2" fill="#F7F5EF" cx="882" cy="367" r="3"></circle>
            <circle id="Oval-4-Copy-87" stroke="#CED2DA" stroke-width="2" fill="#F7F5EF" cx="539" cy="331" r="3"></circle>
            <circle id="Oval-4-Copy-76" stroke="#CED2DA" stroke-width="2" fill="#F7F5EF" cx="369" cy="367" r="3"></circle>
            <circle id="Oval-4-Copy-43" stroke="#CED2DA" stroke-width="2" fill="#F7F5EF" cx="1237" cy="399" r="3"></circle>
            <circle id="Oval-4-Copy-42" stroke="#CED2DA" stroke-width="2" fill="#F7F5EF" cx="1583" cy="240" r="3"></circle>
        </g>
    </g>
</svg>